<?xml version="1.0" standalone="no"?>
<!DOCTYPE svg PUBLIC "-//W3C//DTD SVG 20010904//EN"
 "http://www.w3.org/TR/2001/REC-SVG-20010904/DTD/svg10.dtd">
<svg version="1.0" xmlns="http://www.w3.org/2000/svg"
 width="219.000000pt" height="230.000000pt" viewBox="0 0 219.000000 230.000000"
 preserveAspectRatio="xMidYMid meet">

<g transform="translate(0.000000,230.000000) scale(0.100000,-0.100000)"
fill="#000000" stroke="none">
<path d="M1565 2044 c-115 -80 -225 -160 -243 -177 -18 -18 -47 -61 -65 -96
-27 -55 -32 -79 -38 -175 -12 -177 -54 -282 -157 -389 -51 -53 -131 -111 -202
-147 -31 -15 -164 -141 -423 -399 -208 -207 -385 -388 -393 -403 -32 -60 -9
-143 49 -178 38 -24 107 -26 145 -6 15 8 192 180 393 383 299 301 376 384 424
458 76 117 190 230 275 273 72 36 178 62 256 62 28 0 73 7 100 15 102 30 128
55 307 305 l168 234 -29 29 -29 29 -60 -64 c-33 -35 -120 -128 -193 -208 -73
-80 -143 -156 -156 -170 l-24 -25 -35 35 -35 35 225 225 224 225 -27 28 -26
28 -228 -228 -228 -228 -30 30 -30 30 229 229 229 229 -30 25 -30 25 -227
-227 -227 -226 -34 35 -34 35 24 24 c14 13 115 106 225 206 110 101 206 189
214 196 13 12 12 17 -9 39 -13 14 -26 25 -29 25 -3 0 -100 -66 -216 -146z"/>
</g>
</svg>
